<?xml version="1.0" standalone="no"?>
<!DOCTYPE svg PUBLIC "-//W3C//DTD SVG 20010904//EN"
 "http://www.w3.org/TR/2001/REC-SVG-20010904/DTD/svg10.dtd">
<svg version="1.0" xmlns="http://www.w3.org/2000/svg"
 width="1024.000000pt" height="1024.000000pt" viewBox="0 0 1024.000000 1024.000000"
 preserveAspectRatio="xMidYMid meet">

<g transform="translate(0.000000,1024.000000) scale(0.100000,-0.100000)"
fill="#000000" stroke="none">
<path d="M5185 8739 c-36 -29 -73 -32 -113 -8 -40 23 -49 24 -32 4 7 -8 30
-20 51 -26 43 -13 84 -2 115 32 23 25 13 24 -21 -2z"/>
<path d="M3240 8353 c-28 -38 -101 -171 -164 -298 -62 -126 -136 -270 -165
-319 -28 -49 -50 -90 -48 -92 1 -2 23 13 47 33 25 20 150 105 279 191 262 173
330 223 381 278 l35 38 -42 -34 c-94 -78 -98 -80 -115 -64 -11 11 -37 16 -89
16 -71 1 -117 18 -140 51 -3 5 -9 8 -13 8 -3 -1 -17 -1 -30 -1 -22 0 -24 3
-17 28 10 32 59 117 107 185 52 72 30 56 -26 -20z m210 -281 c0 -10 -76 -9
-86 1 -4 4 14 7 39 7 26 0 47 -3 47 -8z"/>
<path d="M3983 8318 c-22 -29 -26 -41 -12 -36 8 3 14 9 14 14 0 5 4 15 8 22 5
6 6 12 4 12 -3 0 -9 -6 -14 -12z"/>
<path d="M6408 8143 c45 -2 119 -2 165 0 45 1 8 3 -83 3 -91 0 -128 -2 -82 -3z"/>
<path d="M6195 8130 c-33 -6 -35 -7 -10 -8 17 0 53 3 80 8 47 7 48 7 10 7 -22
0 -58 -3 -80 -7z"/>
<path d="M6678 8133 c12 -2 32 -2 45 0 12 2 2 4 -23 4 -25 0 -35 -2 -22 -4z"/>
<path d="M6773 8123 c9 -2 23 -2 30 0 6 3 -1 5 -18 5 -16 0 -22 -2 -12 -5z"/>
<path d="M6075 8110 c-27 -7 -27 -8 -5 -8 14 0 39 4 55 8 27 7 27 8 5 8 -14 0
-38 -4 -55 -8z"/>
<path d="M6408 8113 c7 -3 16 -2 19 1 4 3 -2 6 -13 5 -11 0 -14 -3 -6 -6z"/>
<path d="M6840 8110 c14 -4 34 -8 45 -8 16 0 15 2 -5 8 -14 4 -34 8 -45 8 -16
0 -15 -2 5 -8z"/>
<path d="M5970 8090 l-25 -8 25 0 c14 0 36 4 50 8 l25 8 -25 0 c-14 0 -36 -4
-50 -8z"/>
<path d="M6203 8093 c9 -2 23 -2 30 0 6 3 -1 5 -18 5 -16 0 -22 -2 -12 -5z"/>
<path d="M6918 8093 c7 -3 16 -2 19 1 4 3 -2 6 -13 5 -11 0 -14 -3 -6 -6z"/>
<path d="M6138 8083 c6 -2 18 -2 25 0 6 3 1 5 -13 5 -14 0 -19 -2 -12 -5z"/>
<path d="M5769 8041 c-402 -112 -786 -299 -1280 -625 -432 -285 -877 -750
-1264 -1321 -48 -71 -119 -172 -158 -222 l-70 -93 -26 19 c-38 27 -145 142
-161 171 l-13 25 24 -22 c13 -12 40 -26 59 -32 l35 -11 -34 5 c-32 5 -33 4
-18 -13 9 -10 29 -19 44 -20 29 -2 53 -25 53 -50 0 -7 -4 -10 -10 -7 -5 3 -10
4 -10 1 0 -3 10 -10 21 -17 15 -8 19 -8 15 0 -4 6 -3 11 3 11 5 0 17 3 27 7
13 5 15 3 9 -8 -8 -12 -6 -12 9 0 9 8 16 24 15 35 0 12 -1 40 0 63 1 35 4 41
18 36 12 -5 15 -2 10 10 -5 13 -1 17 16 18 12 1 25 1 30 0 4 0 7 12 7 27 0 28
14 40 64 56 11 4 16 12 12 21 -5 14 58 96 93 121 9 7 31 34 50 60 23 34 5 18
-59 -51 -225 -241 -304 -296 -401 -280 -105 18 -92 156 31 310 28 35 153 159
278 276 125 118 277 263 337 323 81 81 78 85 -5 6 -138 -132 -144 -137 -189
-139 -8 -1 -11 -8 -8 -21 6 -22 -19 -49 -26 -28 -2 7 -3 5 -2 -4 3 -21 -20
-42 -35 -33 -6 4 -10 16 -8 27 2 16 -3 22 -19 23 -25 2 -31 -10 -10 -18 9 -4
9 -6 0 -6 -7 -1 -10 -8 -6 -18 5 -15 3 -15 -14 2 -11 11 -16 22 -12 23 5 2 9
13 9 23 0 14 -4 18 -12 13 -9 -5 -8 -2 1 9 20 25 7 31 -26 12 -15 -9 -20 -14
-10 -11 9 3 17 1 17 -4 0 -6 -11 -10 -25 -10 -29 0 -33 14 -7 30 16 11 16 11
-2 6 -13 -5 -17 -2 -12 9 7 20 -4 19 -21 -2 -11 -13 -16 -15 -20 -5 -2 7 -11
19 -19 26 -11 11 -11 16 -1 19 7 3 5 6 -5 6 -9 1 -19 9 -21 19 -4 16 -5 16 -6
0 -1 -11 -9 -18 -22 -18 -11 0 -17 5 -14 10 4 6 10 8 15 5 4 -3 10 5 13 16 4
14 10 18 19 13 7 -4 10 -4 6 1 -11 11 69 115 88 115 4 0 25 15 48 33 23 18 52
40 66 49 33 22 117 97 108 98 -4 0 -22 -13 -41 -29 l-33 -29 -2 56 c-1 31 -8
60 -15 64 -8 5 -9 8 0 8 6 0 10 12 8 27 -2 24 27 58 237 267 132 132 207 211
167 176 -129 -113 -371 -360 -503 -515 -228 -266 -357 -450 -530 -754 -17 -30
-49 -74 -72 -98 -48 -51 -87 -57 -124 -18 -20 22 -22 31 -18 87 14 160 144
419 321 637 165 204 468 482 720 661 26 18 47 35 47 37 0 17 -237 -164 -404
-308 -61 -53 -115 -97 -121 -97 -5 -1 -10 -5 -10 -9 -1 -19 -16 -29 -42 -27
-15 1 -27 6 -26 12 2 6 28 35 59 64 32 29 68 63 81 75 13 13 33 28 44 34 11 6
18 13 15 16 -7 8 35 40 59 45 11 2 19 9 18 15 -2 9 67 62 177 138 207 141 384
257 423 276 26 13 47 26 47 30 0 27 -442 -258 -674 -434 -360 -273 -632 -566
-873 -942 -359 -557 -543 -1138 -543 -1705 1 -334 62 -599 201 -870 78 -153
171 -282 299 -414 231 -239 468 -398 750 -499 244 -88 471 -123 732 -114 95 4
171 2 194 -5 93 -25 126 -83 127 -223 0 -83 1 -86 9 -40 5 28 5 79 1 115 -3
36 -6 69 -5 73 2 5 -8 17 -20 27 -13 11 -17 19 -10 20 7 0 10 4 7 10 -10 16
77 -19 114 -47 20 -14 48 -39 62 -56 26 -30 27 -35 23 -136 -3 -92 -2 -98 6
-45 27 187 96 270 236 282 47 4 55 2 78 -23 34 -37 42 -100 26 -215 -22 -162
-24 -263 -5 -319 55 -166 217 -223 333 -117 77 69 85 178 32 425 -26 125 -32
168 -27 225 10 120 28 156 140 274 122 130 184 203 238 283 22 33 42 59 44 57
2 -2 -11 -43 -27 -93 -18 -54 -32 -120 -35 -165 -5 -66 -3 -78 17 -102 25 -32
59 -36 83 -10 29 32 35 64 25 132 -19 119 19 278 117 487 43 91 44 92 88 104
24 6 61 24 80 40 40 33 271 312 331 399 37 53 38 57 33 122 -5 60 -4 68 14 73
31 10 68 85 75 151 4 44 0 80 -16 139 -70 253 -78 372 -34 521 58 202 166 333
519 628 369 307 514 449 657 641 154 207 233 418 245 655 14 299 -74 391 -316
331 -97 -24 -294 -117 -396 -186 -189 -129 -388 -315 -531 -498 -122 -156
-193 -268 -334 -522 -141 -253 -158 -280 -253 -393 -136 -164 -304 -264 -517
-307 -73 -15 -116 -17 -302 -11 -205 7 -219 6 -256 -13 -51 -26 -82 -76 -82
-130 0 -38 -2 -41 -27 -41 -22 0 -10 -9 52 -41 74 -38 127 -66 280 -149 53
-29 203 -115 388 -222 424 -245 577 -348 716 -486 53 -52 87 -88 75 -78 -29
22 -34 20 -34 -13 0 -32 -86 -158 -170 -251 -45 -50 -51 -53 -61 -37 -48 81
-224 223 -391 318 -208 118 -214 122 -193 104 18 -15 138 -89 196 -121 35 -19
42 -31 24 -38 -9 -3 -14 -2 -12 2 2 4 -35 26 -82 50 -105 53 -100 49 64 -63
196 -133 293 -214 321 -267 19 -37 18 -44 -11 -71 l-25 -23 -100 98 c-118 115
-312 247 -700 476 -482 283 -673 383 -737 387 -51 2 -70 -15 -81 -72 -6 -35
-31 -63 -212 -239 -214 -208 -285 -271 -394 -349 l-66 -47 -43 26 c-198 115
-260 428 -156 779 67 226 238 570 311 628 20 15 23 14 58 -21 71 -71 195 -79
306 -19 119 64 116 57 43 93 -54 26 -67 38 -88 79 -31 61 -40 187 -21 291 19
109 109 350 110 296 0 -18 6 -11 18 25 48 137 192 335 387 531 268 269 521
450 910 651 99 51 177 93 174 93 -14 0 -123 -52 -260 -125 -135 -73 -205 -114
-371 -222 -37 -23 -69 -43 -71 -43 -1 0 -3 8 -3 19 0 11 6 18 16 16 24 -4 32
6 18 23 -10 14 -10 15 2 5 21 -19 34 -16 19 5 -11 14 -11 15 1 5 14 -13 50 -1
50 18 0 6 -5 7 -12 3 -7 -5 -8 -3 -4 5 5 7 10 10 13 8 2 -3 15 5 29 18 14 13
42 31 62 41 20 9 39 20 42 24 8 13 166 100 280 157 197 96 458 194 651 244 68
17 126 33 128 35 13 11 -49 -1 -170 -35z m1612 -461 c26 -14 25 -59 -2 -137
-24 -67 -51 -87 -72 -51 -23 39 -80 58 -170 58 -46 0 -87 3 -90 7 -4 3 0 15
10 25 15 16 5 27 -11 11 -3 -4 -15 -8 -26 -10 -45 -7 -167 -79 -240 -143 -29
-24 -31 -29 -14 -27 12 2 33 10 48 20 97 63 96 57 -2 -18 -178 -134 -458 -478
-737 -905 -295 -450 -297 -453 -399 -556 -85 -86 -115 -109 -191 -147 -125
-62 -203 -84 -362 -101 -300 -32 -503 -26 -503 15 0 35 43 42 175 30 172 -16
273 -14 383 9 212 43 325 104 482 260 123 122 171 190 308 438 56 100 130 227
164 283 166 266 408 537 623 698 225 168 537 288 626 241z m-2751 -143 c0 -2
-15 -14 -32 -27 l-33 -23 24 26 c21 23 41 35 41 24z m-200 -92 c-7 -8 -17 -15
-23 -15 -6 0 -2 7 9 15 25 19 30 19 14 0z m-1470 -79 c0 -2 -8 -10 -17 -17
-16 -13 -17 -12 -4 4 13 16 21 21 21 13z m4170 -73 c14 -9 26 -17 27 -18 1 -1
-2 -18 -8 -39 -12 -42 -65 -106 -112 -135 -42 -25 -110 -36 -136 -21 -56 29
15 176 104 216 41 18 96 17 125 -3z m-4174 -425 c-8 -13 -28 -42 -43 -65 -16
-23 -32 -42 -37 -43 -4 0 3 15 16 33 13 17 35 47 48 65 13 17 26 32 28 32 2 0
-3 -10 -12 -22z m114 -28 c0 -5 -4 -10 -10 -10 -5 0 -10 5 -10 10 0 6 5 10 10
10 6 0 10 -4 10 -10z m290 -14 c0 -2 -8 -10 -17 -17 -16 -13 -17 -12 -4 4 13
16 21 21 21 13z m-195 -64 c-3 -3 -11 0 -18 7 -9 10 -8 11 6 5 10 -3 15 -9 12
-12z m-311 -37 c-9 -14 -18 -25 -21 -25 -5 0 5 18 20 38 17 22 18 13 1 -13z
m-41 -70 c-9 -19 -18 -33 -21 -31 -4 5 26 66 33 66 3 0 -3 -16 -12 -35z m367
1 c0 -2 -8 -10 -17 -17 -16 -13 -17 -12 -4 4 13 16 21 21 21 13z m-421 -146
c-18 -61 -21 -89 -17 -188 2 -64 1 -106 -3 -92 -16 57 -9 214 12 288 12 40 24
70 26 68 2 -2 -6 -36 -18 -76z m949 -113 c-10 -32 -9 -39 5 -50 12 -9 15 -22
10 -54 -3 -24 -9 -40 -13 -38 -17 11 -17 -24 1 -61 10 -21 19 -50 19 -64 1
-38 33 -101 70 -137 19 -18 37 -33 40 -33 4 0 7 -6 7 -14 0 -10 -13 -13 -50
-11 -38 2 -55 9 -79 31 -64 61 -88 151 -68 250 14 73 60 227 65 222 3 -2 -1
-21 -7 -41z m-1090 -160 c6 -46 -34 -115 -80 -138 -26 -14 -44 -17 -50 -11
-15 15 -12 75 6 110 37 71 118 96 124 39z m139 -59 c-3 -8 -6 -5 -6 6 -1 11 2
17 5 13 3 -3 4 -12 1 -19z m23 -189 c17 -31 12 -111 -10 -146 -40 -66 -135
-106 -174 -73 -37 30 4 156 66 203 62 48 99 53 118 16z m250 -29 c0 -5 -2 -10
-4 -10 -3 0 -8 5 -11 10 -3 6 -1 10 4 10 6 0 11 -4 11 -10z m857 -26 c-3 -3
-12 -4 -19 -1 -8 3 -5 6 6 6 11 1 17 -2 13 -5z m-1126 -681 c13 -16 12 -17 -3
-4 -10 7 -18 15 -18 17 0 8 8 3 21 -13z m16 -65 c-3 -7 -5 -2 -5 12 0 14 2 19
5 13 2 -7 2 -19 0 -25z m-170 -90 c-3 -7 -5 -2 -5 12 0 14 2 19 5 13 2 -7 2
-19 0 -25z m24 -35 c13 -16 12 -17 -3 -4 -17 13 -22 21 -14 21 2 0 10 -8 17
-17z m1291 -199 c-67 -63 -121 -121 -119 -127 1 -7 -3 -11 -9 -10 -6 1 -11
-10 -10 -25 1 -27 3 -28 49 -15 9 3 17 0 17 -6 0 -7 -4 -9 -10 -6 -5 3 -10 1
-10 -5 0 -7 7 -10 15 -6 23 9 44 -4 38 -22 -6 -18 26 10 162 138 74 70 76 71
25 15 -87 -95 -288 -273 -380 -337 l-25 -17 41 3 c23 1 55 11 70 21 16 11 37
18 47 17 9 -2 29 5 45 16 45 31 59 35 27 7 -41 -35 -258 -141 -325 -158 -33
-9 -71 -12 -95 -8 l-40 6 60 46 c73 56 161 146 188 191 l19 33 -28 -35 c-64
-78 -123 -135 -196 -190 l-77 -57 52 -6 c137 -16 349 83 619 290 53 41 129
109 169 151 41 44 57 58 38 32 -59 -78 -221 -240 -304 -305 -88 -69 -256 -180
-323 -215 -24 -12 -41 -24 -38 -27 2 -2 26 7 53 20 31 16 59 23 78 20 17 -2
39 -4 50 -4 20 0 20 0 1 -15 -11 -8 -28 -14 -39 -14 -10 0 -15 -4 -12 -10 3
-5 10 -10 14 -10 15 0 173 101 317 201 141 98 174 112 174 72 -1 -64 -103
-182 -225 -261 -84 -54 -241 -132 -267 -132 -10 0 -18 -5 -18 -11 0 -6 -7 -8
-17 -5 -10 4 -14 4 -10 0 10 -11 -78 -49 -181 -81 -78 -23 -104 -26 -252 -26
-140 -1 -177 2 -243 21 -86 24 -188 72 -226 105 l-24 22 12 -22 c6 -13 27 -33
45 -45 32 -22 36 -27 36 -46 0 -5 12 -14 26 -20 14 -7 22 -17 19 -22 -3 -6 1
-10 9 -10 8 0 20 -9 26 -20 6 -11 16 -20 23 -20 16 -1 57 -35 57 -48 0 -5 6
-15 14 -21 11 -9 15 -9 20 1 3 7 3 2 1 -12 -6 -28 1 -42 30 -58 14 -8 16 -11
5 -12 -9 0 -26 7 -38 16 -13 9 -26 14 -29 11 -2 -3 8 -13 24 -23 15 -10 47
-30 71 -45 118 -76 343 -148 460 -149 26 -1 70 -7 97 -14 28 -7 51 -10 53 -5
2 5 13 4 23 -2 16 -8 18 -14 9 -24 -8 -10 -7 -15 7 -19 10 -3 -38 -4 -107 -2
-155 4 -253 31 -425 116 -126 62 -279 158 -277 175 1 16 -19 35 -30 29 -12 -8
-59 36 -52 47 3 5 -1 6 -9 3 -17 -6 -113 100 -111 122 1 7 -3 12 -9 11 -14 -3
-67 100 -60 118 7 20 23 19 40 -2 13 -17 14 -17 8 3 -6 24 13 31 148 59 81 17
253 84 347 136 65 37 262 174 339 236 30 24 60 42 68 39 7 -3 13 0 13 6 0 18
348 345 370 347 2 1 -51 -51 -118 -115z m228 22 c0 -2 -8 -10 -17 -17 -16 -13
-17 -12 -4 4 13 16 21 21 21 13z m131 -42 c-32 -40 -85 -97 -106 -114 -11 -8
12 20 50 62 71 79 93 99 56 52z m-1944 -131 c-3 -10 -5 -4 -5 12 0 17 2 24 5
18 2 -7 2 -21 0 -30z m36 -266 c21 -26 41 -46 45 -45 16 3 41 -15 35 -25 -4
-6 0 -8 10 -4 11 4 17 1 17 -7 0 -8 6 -17 13 -19 7 -4 6 -6 -4 -6 -24 -1 -112
72 -142 118 -25 37 -27 48 -25 133 l2 93 5 -96 c6 -93 7 -97 44 -142z m2347
140 c0 -2 -10 -12 -22 -23 l-23 -19 19 23 c18 21 26 27 26 19z m-55 -47 c-3
-6 -39 -34 -78 -64 -40 -29 -110 -90 -157 -135 -47 -45 -118 -105 -157 -133
-76 -52 -99 -75 -39 -39 27 17 39 19 59 12 22 -9 35 -4 94 36 37 26 88 63 112
82 25 20 41 30 37 23 -13 -21 -194 -153 -298 -218 -189 -117 -294 -161 -498
-208 -58 -13 -96 -25 -85 -25 11 0 60 8 109 19 106 23 103 23 88 8 -8 -8 -7
-15 8 -28 18 -15 18 -19 5 -30 -8 -7 -15 -20 -14 -29 0 -13 2 -12 10 4 16 32
72 63 177 99 146 50 221 81 392 162 107 51 167 74 193 74 20 0 37 -3 37 -7 -3
-47 -129 -151 -265 -217 -181 -89 -415 -162 -488 -153 -43 6 -41 -8 3 -18 28
-6 35 -16 31 -39 -2 -11 114 0 198 20 35 8 66 12 68 10 7 -7 -126 -34 -227
-47 -119 -14 -363 -6 -445 16 -33 9 -114 44 -180 78 -66 35 -141 71 -166 80
-49 19 -104 59 -94 69 4 3 23 1 43 -4 78 -22 404 29 623 97 131 40 377 160
548 265 117 73 337 226 347 241 3 5 7 9 10 9 3 0 2 -5 -1 -10z m-2149 -188
c-6 -5 -36 133 -35 160 0 13 9 -17 19 -67 11 -49 18 -91 16 -93z m2084 23
c-24 -25 -46 -45 -49 -45 -3 0 15 20 39 45 24 25 46 45 49 45 3 0 -15 -20 -39
-45z m100 -282 c0 -32 -5 -28 -14 10 -4 19 -3 26 4 22 5 -3 10 -18 10 -32z
m-19 -56 c-10 -9 -11 -8 -5 6 3 10 9 15 12 12 3 -3 0 -11 -7 -18z m-1578 -54
c-7 -2 -19 -2 -25 0 -7 3 -2 5 12 5 14 0 19 -2 13 -5z m332 -3 c-3 -5 -16 -10
-28 -9 -20 1 -20 2 3 9 14 4 26 8 28 9 2 1 0 -3 -3 -9z m-178 -26 c-3 -3 -12
-4 -19 -1 -8 3 -5 6 6 6 11 1 17 -2 13 -5z m1303 -38 c0 -2 -8 -10 -17 -17
-16 -13 -17 -12 -4 4 13 16 21 21 21 13z m360 -30 c0 -2 -8 -10 -17 -17 -16
-13 -17 -12 -4 4 13 16 21 21 21 13z m-450 -31 c0 -6 -97 -55 -107 -55 -4 1
17 14 47 30 61 32 60 32 60 25z m280 0 c0 -2 -10 -9 -22 -15 -22 -11 -22 -10
-4 4 21 17 26 19 26 11z m-400 -59 c0 -2 -7 -7 -16 -10 -8 -3 -12 -2 -9 4 6
10 25 14 25 6z m285 -6 c-3 -5 -12 -10 -18 -10 -7 0 -6 4 3 10 19 12 23 12 15
0z m-225 -110 c-19 -11 -41 -24 -49 -28 -19 -11 -56 -96 -39 -89 49 18 53 13
8 -9 -95 -45 -250 -66 -250 -34 0 22 163 120 199 120 4 0 39 13 77 29 82 35
103 39 54 11z m500 -924 c11 -67 11 -78 -4 -101 -20 -31 -67 -34 -96 -5 -35
35 -23 121 30 234 l24 49 17 -51 c10 -28 23 -85 29 -126z"/>
<path d="M2497 6073 c-10 -9 -9 -71 1 -77 5 -3 22 3 39 14 25 15 30 23 26 44
-4 20 -11 26 -32 26 -15 0 -31 -3 -34 -7z"/>
<path d="M2575 6069 c-4 -6 -5 -12 -2 -15 2 -3 7 2 10 11 7 17 1 20 -8 4z"/>
<path d="M2712 5889 c-13 -5 -21 -13 -18 -18 3 -5 -2 -8 -12 -7 -9 0 -16 -5
-14 -12 1 -8 -2 -11 -6 -8 -13 8 -37 -22 -56 -68 -29 -69 -17 -106 33 -106 32
0 94 37 86 50 -4 6 -1 9 6 8 17 -4 49 59 49 94 0 37 -17 78 -32 77 -7 0 -23
-4 -36 -10z m48 -8 c0 -5 3 -17 6 -26 5 -13 0 -15 -29 -13 -28 2 -34 5 -25 15
6 7 7 13 2 13 -14 0 19 20 34 20 6 0 12 -4 12 -9z"/>
<path d="M2720 4041 c0 -6 4 -13 10 -16 6 -3 7 1 4 9 -7 18 -14 21 -14 7z"/>
<path d="M4279 4053 c-13 -17 -13 -17 6 -3 11 8 22 16 24 17 2 2 0 3 -6 3 -6
0 -17 -8 -24 -17z"/>
<path d="M3288 3763 c6 -2 18 -2 25 0 6 3 1 5 -13 5 -14 0 -19 -2 -12 -5z"/>
<path d="M3593 3763 c9 -2 23 -2 30 0 6 3 -1 5 -18 5 -16 0 -22 -2 -12 -5z"/>
<path d="M3398 3753 c28 -2 76 -2 105 0 28 2 5 3 -53 3 -58 0 -81 -1 -52 -3z"/>
<path d="M7005 8070 c27 -12 43 -12 25 0 -8 5 -22 9 -30 9 -10 0 -8 -3 5 -9z"/>
<path d="M5988 8053 c7 -3 16 -2 19 1 4 3 -2 6 -13 5 -11 0 -14 -3 -6 -6z"/>
<path d="M5898 8033 c7 -3 16 -2 19 1 4 3 -2 6 -13 5 -11 0 -14 -3 -6 -6z"/>
<path d="M7803 8033 c9 -2 25 -2 35 0 9 3 1 5 -18 5 -19 0 -27 -2 -17 -5z"/>
<path d="M5815 8015 c-39 -14 -40 -14 -5 -8 41 7 82 22 60 22 -8 0 -33 -7 -55
-14z"/>
<path d="M7615 8020 c28 -12 37 -12 30 0 -3 6 -16 10 -28 9 -21 0 -21 -1 -2
-9z"/>
<path d="M7898 8023 c6 -2 18 -2 25 0 6 3 1 5 -13 5 -14 0 -19 -2 -12 -5z"/>
<path d="M3880 8010 c-9 -6 -10 -10 -3 -10 6 0 15 5 18 10 8 12 4 12 -15 0z"/>
<path d="M7960 8010 c25 -8 25 -8 -4 -9 -28 -1 -29 -2 -10 -16 22 -17 38 -20
29 -5 -4 6 9 10 32 9 38 -1 38 -1 8 -9 -26 -7 -23 -8 21 -9 95 -2 227 -73 335
-181 59 -57 104 -132 95 -156 -3 -7 1 -26 9 -41 8 -15 14 -44 14 -63 l-1 -35
-8 30 c-24 87 -25 88 -39 71 -18 -22 -69 -20 -109 4 -41 25 -70 72 -78 128 -6
41 -12 48 -88 104 -44 34 -97 68 -116 77 -19 9 -52 27 -73 40 -29 17 -41 21
-50 12 -8 -8 -7 -11 5 -11 9 0 20 -5 23 -10 4 -6 3 -10 -2 -9 -22 4 -33 -3
-33 -18 0 -13 -3 -14 -8 -5 -5 7 -26 11 -50 10 -29 -1 -48 5 -62 17 -12 11
-27 20 -35 21 -8 1 -26 12 -41 23 -15 12 -34 21 -42 21 -9 0 4 -13 29 -28 108
-69 182 -187 254 -409 52 -161 103 -249 167 -290 152 -95 306 -58 374 91 33
72 40 148 20 225 -23 89 -56 139 -152 230 -94 89 -196 147 -321 181 -72 20
-150 28 -93 10z"/>
<path d="M6358 7993 c7 -3 16 -2 19 1 4 3 -2 6 -13 5 -11 0 -14 -3 -6 -6z"/>
<path d="M6288 7983 c6 -2 18 -2 25 0 6 3 1 5 -13 5 -14 0 -19 -2 -12 -5z"/>
<path d="M6248 7973 c7 -3 16 -2 19 1 4 3 -2 6 -13 5 -11 0 -14 -3 -6 -6z"/>
<path d="M5575 7935 c-16 -7 -23 -14 -15 -14 8 0 26 6 40 14 32 18 14 18 -25
0z"/>
<path d="M2523 7910 c-111 -67 -60 -230 72 -230 76 0 125 51 125 131 0 35 -6
48 -39 80 -33 33 -45 39 -82 39 -26 0 -57 -8 -76 -20z m109 -11 c25 -11 60
-63 50 -74 -3 -3 -15 4 -25 17 -10 13 -16 18 -13 11 10 -18 -35 -12 -65 9 -14
9 -29 15 -33 11 -3 -3 -6 -1 -6 5 0 27 53 39 92 21z"/>
<path d="M6704 7919 c-100 -13 -351 -78 -449 -116 -200 -79 -431 -199 -580
-302 -238 -164 -352 -258 -549 -451 -195 -191 -346 -371 -518 -620 -83 -120
-151 -196 -207 -232 -25 -15 -40 -28 -35 -28 6 0 31 14 56 30 48 32 130 129
237 283 35 51 93 128 129 172 83 102 85 104 77 83 -4 -11 -2 -18 5 -18 6 0 10
8 8 18 -1 10 5 30 14 44 13 20 23 24 43 20 16 -3 33 2 46 14 20 18 20 18 5
-11 -8 -15 -19 -31 -24 -34 -5 -3 -28 -37 -50 -76 -44 -75 -43 -73 71 80 42
55 86 114 100 130 l25 30 -4 -45 c-7 -63 12 -95 56 -96 19 -1 30 0 24 3 -22 8
15 140 54 192 14 19 47 47 74 64 26 16 48 36 48 43 0 8 7 14 16 14 8 0 12 4 9
10 -3 5 0 7 8 4 8 -3 17 2 21 11 3 9 10 14 15 11 5 -3 51 26 102 64 63 48 102
70 121 70 15 0 28 4 28 8 0 5 12 14 26 20 20 10 24 10 18 0 -4 -7 5 -2 18 12
14 14 23 28 21 33 -6 10 15 9 21 -2 3 -5 -27 -40 -67 -77 -41 -38 -100 -98
-132 -134 -38 -42 -20 -28 51 41 140 136 142 138 252 226 397 319 851 489
1256 470 134 -6 231 -23 363 -66 48 -15 92 -26 98 -23 6 4 6 6 0 8 -18 3 -190
56 -275 84 -47 16 -115 33 -151 39 -74 12 -382 13 -475 0z m-1374 -803 c0 -2
-8 -10 -17 -17 -16 -13 -17 -12 -4 4 13 16 21 21 21 13z"/>
<path d="M5470 7895 c-30 -13 -68 -29 -84 -34 -16 -6 -27 -13 -24 -16 4 -4
167 60 177 71 9 9 -16 1 -69 -21z"/>
<path d="M5710 7785 c-25 -13 -41 -24 -37 -25 11 0 87 39 87 45 0 7 0 7 -50
-20z"/>
<path d="M3539 7733 c-13 -16 -12 -17 4 -4 9 7 17 15 17 17 0 8 -8 3 -21 -13z"/>
<path d="M5434 7644 c-18 -14 -18 -15 4 -4 12 6 22 13 22 15 0 8 -5 6 -26 -11z"/>
<path d="M2195 7454 c-100 -34 -149 -158 -98 -246 37 -63 135 -96 206 -69 47
18 94 69 106 114 31 126 -93 243 -214 201z m125 -39 c9 -6 11 -4 4 6 -6 11 -2
10 16 -2 29 -19 49 -68 49 -120 1 -46 -14 -52 -64 -28 -21 10 -51 19 -67 19
-29 0 -59 26 -66 57 -10 47 -6 67 16 79 23 11 86 5 112 -11z"/>
<path d="M3303 7135 c0 -8 4 -12 9 -9 4 3 8 9 8 15 0 5 -4 9 -8 9 -5 0 -9 -7
-9 -15z"/>
<path d="M8175 7076 c-60 -27 -85 -83 -62 -138 29 -68 95 -94 160 -63 79 37
74 166 -8 201 -42 17 -51 17 -90 0z m99 -26 c22 -8 26 -15 25 -47 -1 -32 -2
-34 -8 -13 -4 14 -22 35 -40 47 -35 24 -23 31 23 13z"/>
<path d="M5495 7046 c-45 -47 -56 -68 -15 -29 24 23 42 44 40 46 -3 3 -14 -5
-25 -17z"/>
<path d="M3669 7003 l-34 -38 38 34 c20 19 37 36 37 38 0 8 -8 0 -41 -34z"/>
<path d="M5394 6938 l-29 -33 33 29 c30 28 37 36 29 36 -2 0 -16 -15 -33 -32z"/>
<path d="M5304 6858 l-19 -23 23 19 c12 11 22 21 22 23 0 8 -8 2 -26 -19z"/>
<path d="M2093 6828 c-136 -144 -225 -374 -258 -675 -4 -34 -2 -53 5 -53 5 0
10 6 10 13 0 23 107 232 180 352 40 66 83 143 96 172 44 98 56 233 21 233 -7
0 -31 -19 -54 -42z"/>
<path d="M3053 6817 c-3 -6 -1 -7 5 -3 6 3 13 -3 17 -14 5 -17 10 -19 21 -9 7
6 12 15 9 19 -3 5 1 10 7 12 7 3 -2 5 -20 5 -18 0 -36 -5 -39 -10z"/>
<path d="M5208 6803 c7 -3 16 -2 19 1 4 3 -2 6 -13 5 -11 0 -14 -3 -6 -6z"/>
<path d="M3260 6660 c0 -5 5 -10 10 -10 6 0 10 5 10 10 0 6 -4 10 -10 10 -5 0
-10 -4 -10 -10z"/>
<path d="M5321 6514 c0 -11 3 -14 6 -6 3 7 2 16 -1 19 -3 4 -6 -2 -5 -13z"/>
<path d="M5145 6450 c10 -11 20 -20 23 -20 3 0 -3 9 -13 20 -10 11 -20 20 -23
20 -3 0 3 -9 13 -20z"/>
<path d="M5223 6413 c9 -2 23 -2 30 0 6 3 -1 5 -18 5 -16 0 -22 -2 -12 -5z"/>
<path d="M3216 6123 c-6 -14 -5 -15 5 -6 7 7 10 15 7 18 -3 3 -9 -2 -12 -12z"/>
<path d="M3996 5905 c-11 -8 -15 -15 -9 -15 6 0 16 7 23 15 16 19 11 19 -14 0z"/>
<path d="M2905 5880 c10 -11 20 -20 23 -20 3 0 -3 9 -13 20 -10 11 -20 20 -23
20 -3 0 3 -9 13 -20z"/>
<path d="M3944 5864 c-18 -14 -18 -15 4 -4 12 6 22 13 22 15 0 8 -5 6 -26 -11z"/>
<path d="M3534 5542 c-92 -58 -110 -175 -38 -243 21 -20 36 -24 87 -24 78 0
118 25 142 90 23 58 13 106 -29 152 -27 30 -41 36 -82 40 -37 3 -57 -1 -80
-15z m132 -45 c35 -30 25 -49 -18 -36 -18 5 -40 6 -49 4 -19 -6 -36 26 -24 45
11 18 63 10 91 -13z"/>
<path d="M4389 5483 c-13 -16 -12 -17 4 -4 9 7 17 15 17 17 0 8 -8 3 -21 -13z"/>
<path d="M4910 4766 c0 -3 9 -10 20 -16 11 -6 20 -8 20 -6 0 3 -9 10 -20 16
-11 6 -20 8 -20 6z"/>
<path d="M5819 4453 l-24 -28 28 24 c15 14 27 26 27 28 0 8 -8 1 -31 -24z"/>
<path d="M4040 2959 c0 -5 5 -7 10 -4 6 3 10 8 10 11 0 2 -4 4 -10 4 -5 0 -10
-5 -10 -11z"/>
<path d="M4042 2660 c0 -14 2 -19 5 -12 2 6 2 18 0 25 -3 6 -5 1 -5 -13z"/>
<path d="M3597 2609 c7 -7 15 -10 18 -7 3 3 -2 9 -12 12 -14 6 -15 5 -6 -5z"/>
<path d="M3720 2610 c-9 -6 -10 -10 -3 -10 6 0 15 5 18 10 8 12 4 12 -15 0z"/>
<path d="M3886 2124 c-4 -20 -5 -38 -3 -40 3 -3 8 11 11 32 4 20 5 38 3 40 -3
3 -8 -11 -11 -32z"/>
<path d="M3873 1995 c0 -44 2 -61 4 -37 2 23 2 59 0 80 -2 20 -4 1 -4 -43z"/>
<path d="M3970 1900 c6 -11 13 -20 16 -20 2 0 0 9 -6 20 -6 11 -13 20 -16 20
-2 0 0 -9 6 -20z"/>
<path d="M3881 1894 c0 -11 3 -14 6 -6 3 7 2 16 -1 19 -3 4 -6 -2 -5 -13z"/>
<path d="M4356 1885 c-9 -26 -7 -32 5 -12 6 10 9 21 6 23 -2 3 -7 -2 -11 -11z"/>
<path d="M3890 1862 c-1 -56 121 -164 182 -162 7 1 -9 10 -36 20 -60 23 -102
62 -127 115 -10 22 -19 34 -19 27z"/>
<path d="M4294 1779 c-22 -24 -75 -53 -119 -64 -16 -4 -25 -9 -18 -12 19 -7
109 36 139 68 15 16 25 29 22 29 -3 0 -13 -9 -24 -21z"/>
</g>
</svg>
